# xmcd
#
# Track frame offsets:
#	150
#	13768
#	24824
#	36521
#	51653
#	63533
#	75355
#	88879
#	103599
#	111178
#	127023
#	140792
#	153634
#	165057
#	177878
#	189996
#	204349
#	216495
#	226988
#	237814
#	247958
#	260837
#
# Disc length: 3663 seconds
#
# Revision: 2
# Processed by: cddbd v1.5.2PL0 Copyright (c) Steve Scherf et al.
# Submitted via: audiograbber 1.83.01
#
DISCID=340e4d16
DTITLE=Various Artist - The Bruce Records Story
DYEAR=1900
DGENRE=
TTITLE0=Harptones - A Sundy Kind Of Love
TTITLE1=Jumping Jacks - Pa Pa Ya Baby
TTITLE2=Sam Kimble - Stop And Go
TTITLE3=Mastertones - Tell Me
TTITLE4=Babs Gonzales - Manhattan Fables
TTITLE5=Jimmy Smith - Jughead
TTITLE6=Danny Taylor - I'm The Father Of Annies' Baby
TTITLE7=Don Gardner - How Do You Speak To An Angel
TTITLE8=Dicky Smith - A New Kind Of Love
TTITLE9=Don Gardner - I'll Walk Alone
TTITLE10=Jimmy Smith - Dancing On The Ceilling
TTITLE11=Jumping Jacks - Embraceable You
TTITLE12=Debs - Whadaya Want
TTITLE13=Sam Kimble - Sam's Blues
TTITLE14=Don Gardner - Going Tdown To Big Mary's
TTITLE15=Harptones - My Memories Of You
TTITLE16=Debs - Shoo Doo Be Doo
TTITLE17=Don Gardner - Sonotone Bounce
TTITLE18=Danny Taylor - Bad Bad Drawers 
TTITLE19=Babs Gonzales - Be Bop Santa Claus
TTITLE20=Bonus Track 1
TTITLE21=Bonus Track 2
EXTD=
EXTT0=
EXTT1=
EXTT2=
EXTT3=
EXTT4=
EXTT5=
EXTT6=
EXTT7=
EXTT8=
EXTT9=
EXTT10=
EXTT11=
EXTT12=
EXTT13=
EXTT14=
EXTT15=
EXTT16=
EXTT17=
EXTT18=
EXTT19=
EXTT20=
EXTT21=
PLAYORDER=
